<svg width="250" height="282" viewBox="0 0 250 282" fill="none" xmlns="http://www.w3.org/2000/svg">
<path d="M115.129 2.54666L9.50265 63.5307C3.62265 66.9253 0 73.1986 0 79.9866V201.955C0 208.744 3.62265 215.016 9.50265 218.412L115.129 279.395C121.008 282.789 128.252 282.789 134.132 279.395L239.757 218.412C245.639 215.016 249.261 208.744 249.261 201.955V79.9866C249.261 73.1986 245.639 66.9253 239.757 63.5307L134.132 2.54666C131.192 0.847995 127.911 0 124.631 0C121.349 0 118.069 0.847995 115.129 2.54666Z" fill="url(#paint0_linear_1_535)"/>
<path d="M51 195.878V86.8687H76.228V195.878H51Z" fill="white"/>
<path d="M51 195.878V86.8687H76.228V195.878H51Z" fill="url(#paint1_linear_1_535)"/>
<path d="M51 195.878V86.8687H76.228V195.878H51Z" fill="url(#paint2_linear_1_535)"/>
<path d="M155.046 197.747C146.429 197.747 138.435 196.346 131.064 193.543C123.796 190.739 117.463 186.794 112.065 181.707C106.77 176.62 102.617 170.65 99.6067 163.798C96.6997 156.946 95.2463 149.471 95.2463 141.374C95.2463 133.276 96.6997 125.801 99.6067 118.949C102.617 112.097 106.822 106.127 112.221 101.04C117.619 95.9529 123.952 92.0078 131.219 89.2047C138.487 86.4016 146.377 85 154.89 85C163.507 85 171.397 86.4016 178.561 89.2047C185.828 92.0078 192.109 95.9529 197.404 101.04C202.803 106.127 207.007 112.097 210.018 118.949C213.029 125.697 214.534 133.172 214.534 141.374C214.534 149.471 213.029 156.998 210.018 163.954C207.007 170.806 202.803 176.776 197.404 181.863C192.109 186.846 185.828 190.739 178.561 193.543C171.397 196.346 163.559 197.747 155.046 197.747ZM154.89 176.257C159.77 176.257 164.234 175.426 168.283 173.765C172.436 172.104 176.069 169.716 179.184 166.602C182.298 163.487 184.686 159.801 186.347 155.545C188.112 151.288 188.995 146.565 188.995 141.374C188.995 136.183 188.112 131.459 186.347 127.202C184.686 122.946 182.298 119.26 179.184 116.146C176.173 113.031 172.591 110.643 168.438 108.982C164.286 107.321 159.77 106.49 154.89 106.49C150.011 106.49 145.495 107.321 141.342 108.982C137.293 110.643 133.711 113.031 130.597 116.146C127.482 119.26 125.042 122.946 123.277 127.202C121.616 131.459 120.786 136.183 120.786 141.374C120.786 146.461 121.616 151.184 123.277 155.545C125.042 159.801 127.43 163.487 130.441 166.602C133.555 169.716 137.189 172.104 141.342 173.765C145.495 175.426 150.011 176.257 154.89 176.257Z" fill="white"/>
<path d="M155.046 197.747C146.429 197.747 138.435 196.346 131.064 193.543C123.796 190.739 117.463 186.794 112.065 181.707C106.77 176.62 102.617 170.65 99.6067 163.798C96.6997 156.946 95.2463 149.471 95.2463 141.374C95.2463 133.276 96.6997 125.801 99.6067 118.949C102.617 112.097 106.822 106.127 112.221 101.04C117.619 95.9529 123.952 92.0078 131.219 89.2047C138.487 86.4016 146.377 85 154.89 85C163.507 85 171.397 86.4016 178.561 89.2047C185.828 92.0078 192.109 95.9529 197.404 101.04C202.803 106.127 207.007 112.097 210.018 118.949C213.029 125.697 214.534 133.172 214.534 141.374C214.534 149.471 213.029 156.998 210.018 163.954C207.007 170.806 202.803 176.776 197.404 181.863C192.109 186.846 185.828 190.739 178.561 193.543C171.397 196.346 163.559 197.747 155.046 197.747ZM154.89 176.257C159.77 176.257 164.234 175.426 168.283 173.765C172.436 172.104 176.069 169.716 179.184 166.602C182.298 163.487 184.686 159.801 186.347 155.545C188.112 151.288 188.995 146.565 188.995 141.374C188.995 136.183 188.112 131.459 186.347 127.202C184.686 122.946 182.298 119.26 179.184 116.146C176.173 113.031 172.591 110.643 168.438 108.982C164.286 107.321 159.77 106.49 154.89 106.49C150.011 106.49 145.495 107.321 141.342 108.982C137.293 110.643 133.711 113.031 130.597 116.146C127.482 119.26 125.042 122.946 123.277 127.202C121.616 131.459 120.786 136.183 120.786 141.374C120.786 146.461 121.616 151.184 123.277 155.545C125.042 159.801 127.43 163.487 130.441 166.602C133.555 169.716 137.189 172.104 141.342 173.765C145.495 175.426 150.011 176.257 154.89 176.257Z" fill="url(#paint3_linear_1_535)"/>
<path d="M155.046 197.747C146.429 197.747 138.435 196.346 131.064 193.543C123.796 190.739 117.463 186.794 112.065 181.707C106.77 176.62 102.617 170.65 99.6067 163.798C96.6997 156.946 95.2463 149.471 95.2463 141.374C95.2463 133.276 96.6997 125.801 99.6067 118.949C102.617 112.097 106.822 106.127 112.221 101.04C117.619 95.9529 123.952 92.0078 131.219 89.2047C138.487 86.4016 146.377 85 154.89 85C163.507 85 171.397 86.4016 178.561 89.2047C185.828 92.0078 192.109 95.9529 197.404 101.04C202.803 106.127 207.007 112.097 210.018 118.949C213.029 125.697 214.534 133.172 214.534 141.374C214.534 149.471 213.029 156.998 210.018 163.954C207.007 170.806 202.803 176.776 197.404 181.863C192.109 186.846 185.828 190.739 178.561 193.543C171.397 196.346 163.559 197.747 155.046 197.747ZM154.89 176.257C159.77 176.257 164.234 175.426 168.283 173.765C172.436 172.104 176.069 169.716 179.184 166.602C182.298 163.487 184.686 159.801 186.347 155.545C188.112 151.288 188.995 146.565 188.995 141.374C188.995 136.183 188.112 131.459 186.347 127.202C184.686 122.946 182.298 119.26 179.184 116.146C176.173 113.031 172.591 110.643 168.438 108.982C164.286 107.321 159.77 106.49 154.89 106.49C150.011 106.49 145.495 107.321 141.342 108.982C137.293 110.643 133.711 113.031 130.597 116.146C127.482 119.26 125.042 122.946 123.277 127.202C121.616 131.459 120.786 136.183 120.786 141.374C120.786 146.461 121.616 151.184 123.277 155.545C125.042 159.801 127.43 163.487 130.441 166.602C133.555 169.716 137.189 172.104 141.342 173.765C145.495 175.426 150.011 176.257 154.89 176.257Z" fill="url(#paint4_linear_1_535)"/>
<defs>
<linearGradient id="paint0_linear_1_535" x1="165.398" y1="20.1593" x2="86.7819" y2="253.132" gradientUnits="userSpaceOnUse">
<stop stop-color="white"/>
<stop offset="0.177435" stop-color="white"/>
<stop offset="1" stop-color="#CDCCFF"/>
</linearGradient>
<linearGradient id="paint1_linear_1_535" x1="159.505" y1="221.293" x2="110.079" y2="61.7243" gradientUnits="userSpaceOnUse">
<stop stop-color="white"/>
<stop offset="0.177435" stop-color="white"/>
<stop offset="1" stop-color="#CDCCFF"/>
</linearGradient>
<linearGradient id="paint2_linear_1_535" x1="135.324" y1="216.413" x2="74.6378" y2="66.0404" gradientUnits="userSpaceOnUse">
<stop stop-color="#8669FF"/>
<stop offset="0.994491" stop-color="#2265DE"/>
<stop offset="1" stop-color="#2265DE"/>
</linearGradient>
<linearGradient id="paint3_linear_1_535" x1="159.505" y1="221.293" x2="110.079" y2="61.7243" gradientUnits="userSpaceOnUse">
<stop stop-color="white"/>
<stop offset="0.177435" stop-color="white"/>
<stop offset="1" stop-color="#CDCCFF"/>
</linearGradient>
<linearGradient id="paint4_linear_1_535" x1="135.324" y1="216.413" x2="74.6378" y2="66.0404" gradientUnits="userSpaceOnUse">
<stop stop-color="#8669FF"/>
<stop offset="0.994491" stop-color="#2265DE"/>
<stop offset="1" stop-color="#2265DE"/>
</linearGradient>
</defs>
</svg>
